<svg id="Layer_1" data-name="Layer 1" xmlns="http://www.w3.org/2000/svg" viewBox="0 0 512 512"><defs><style>.cls-1{fill:#236eb4;}</style></defs><title>zoho-crm-vector-logo_logoshape</title><path id="Path_1540" data-name="Path 1540" class="cls-1" d="M340.58,399.07a142.19,142.19,0,0,1-100.7-41.4h0l-78.73-78.79a48.34,48.34,0,0,1,34.21-82.57h.11a48.09,48.09,0,0,1,34.11,14.18l72.19,72.23a21.83,21.83,0,0,0,31.7-30q-.41-.44-.84-.84l-78.78-78.71A115.73,115.73,0,0,0,172,139.46h-.27a116.42,116.42,0,1,0,33.34,228.12,13.34,13.34,0,1,1,7.55,25.58h0a143.15,143.15,0,1,1-41-280.33H172a142.25,142.25,0,0,1,100.7,41.25h0l78.71,78.71a48.43,48.43,0,1,1-67.26,69.71c-.42-.41-.83-.82-1.23-1.24l-72.1-72A21.82,21.82,0,1,0,180,260.07l78.69,78.7a116.39,116.39,0,1,0,52.69-195.55c-1.38.34-2.74.74-4.12,1.15a13.33,13.33,0,1,1-8.43-25.3c.27-.09.55-.18.82-.25l5.07-1.43a143.11,143.11,0,1,1,35.9,281.68Z"/></svg>